{"title":"Jormungand","uid":9685107,"size":1400699461,"categoryP":"video","categoryS":"tv_shows","magnet":"?xt=urn:btih:7b2f1092eccc64c52838ab335b33c2764e518ad5&amp;dn=Jormungand&amp;tr=udp%3A%2F%2Ftracker.openbittorrent.com%3A80&amp;tr=udp%3A%2F%2Fopen.demonii.com%3A1337&amp;tr=udp%3A%2F%2Ftracker.coppersurfer.tk%3A6969&amp;tr=udp%3A%2F%2Fexodus.desync.com%3A6969","seeders":3,"leechers":0,"uploader":"p7trick","files":-1,"time":1393749415,"description":"watchcartoononline\n\nJormungand eps 1-24 ENGLISH DUBBED\n_________________________________________________________\n\nFormat                                   : MPEG-4\nFormat profile                           : Base Media\nCodec ID                                 : isom\nFile size                                : 58.3 MiB\nDuration                                 : 23mn 46s\nOverall bit rate                         : 343 Kbps\nWriting application                      : Lavf55.0.100\n\nVideo\nID                                       : 1\nFormat                                   : AVC\nFormat/Info                              : Advanced Video Codec\nFormat profile                           : &lt;a class=&quot;__cf_email__&quot; href=&quot;/cdn-cgi/l/email-protection&quot; data-cfemail=&quot;a2e0c3d1c7cecbccc7e2ee918c92&quot;&gt;[email&amp;#160;protected]&lt;/a&gt;&lt;script cf-hash='f9e31' type=&quot;text/javascript&quot;&gt;\n/* &lt;![CDATA[ */!function(){try{var t=&quot;currentScript&quot;in document?document.currentScript:function(){for(var t=document.getElementsByTagName(&quot;script&quot;),e=t.length;e--;)if(t[e].getAttribute(&quot;cf-hash&quot;))return t[e]}();if(t&amp;&amp;t.previousSibling){var e,r,n,i,c=t.previousSibling,a=c.getAttribute(&quot;data-cfemail&quot;);if(a){for(e=&quot;&quot;,r=parseInt(a.substr(0,2),16),n=2;a.length-n;n+=2)i=parseInt(a.substr(n,2),16)^r,e+=String.fromCharCode(i);e=document.createTextNode(e),c.parentNode.replaceChild(e,c)}}}catch(u){}}();/* ]]&gt; */&lt;/script&gt;\nFormat settings, CABAC                   : No\nFormat settings, ReFrames                : 5 frames\nCodec ID                                 : avc1\nCodec ID/Info                            : Advanced Video Coding\nDuration                                 : 23mn 46s\nBit rate                                 : 209 Kbps\nWidth                                    : 640 pixels\nHeight                                   : 360 pixels\nDisplay aspect ratio                     : 16:9\nFrame rate mode                          : Constant\nFrame rate                               : 23.810 fps\nColor space                              : YUV\nChroma subsampling                       : 4:2:0\nBit depth                                : 8 bits\nScan type                                : Progressive\nBits/(Pixel*Frame)                       : 0.038\nStream size                              : 35.5 MiB (61%)\nWriting library                          : x264 core 130 r2274 c832fe9\nLanguage                                 : English\n\nAudio\nID                                       : 2\nFormat                                   : AAC\nFormat/Info                              : Advanced Audio Codec\nFormat profile                           : LC\nCodec ID                                 : 40\nDuration                                 : 23mn 46s\nBit rate mode                            : Constant\nBit rate                                 : 128 Kbps\nChannel(s)                               : 2 channels\nChannel positions                        : Front: L R\nSampling rate                            : 44.1 KHz\nCompression mode                         : Lossy\nStream size                              : 21.8 MiB (37%)\nLanguage                                 : English\n_________________________________________________________\n\nSummary:\nKoko Hekmatyar, a young arms dealer sells weapons under HCLI, a shipping corporation. As one of the company's unofficial weapon sellers, she secretly sells weapons in many countries while avoiding the local authorities and law enforcements as most of her work is actually illegal under international law. Travelling with her is her team of bodyguards who are mostly composed of ex-military veterans. Her latest addition to the crew is Jonah, a seemingly emotionless child soldier who is skilled in combat yet ironically hates arms dealers. Jonah joins Koko as he wishes to find the arms dealer responsible for his family's death. What follows is Koko and her crews escapades around the world.\n\nFor updates/requests:\nTwitter - @p7tricktorrent\nFacebook - /p7tricktorrent\nTPB - /user/p7trick/\nKAT - /user/iPirate7\n_________________________________________________________\n\nSEED!\n\nshare ratio:\n&quot;Scumbag = 0.1:1\nLeecher = 0.999:1\nMinimum = 1:1\nGood = 3:1\nGreat = 5:1\nAwesome = 10:1\n1337 = 100:1&quot;\t\t","torrent":{"xt":"urn:btih:7b2f1092eccc64c52838ab335b33c2764e518ad5","amp;dn":"Jormungand","amp;tr":["udp%3A%2F%2Ftracker.openbittorrent.com%3A80","udp%3A%2F%2Fopen.demonii.com%3A1337","udp%3A%2F%2Ftracker.coppersurfer.tk%3A6969","udp%3A%2F%2Fexodus.desync.com%3A6969"],"infoHash":"7b2f1092eccc64c52838ab335b33c2764e518ad5","infoHashBuffer":{"type":"Buffer","data":[123,47,16,146,236,204,100,197,40,56,171,51,91,51,194,118,78,81,138,213]},"announce":[],"urlList":[]}}